<svg width="20" height="20" viewBox="0 0 20 20" fill="none" xmlns="http://www.w3.org/2000/svg">
<path fill-rule="evenodd" clip-rule="evenodd" d="M12.9166 3.125C11.1907 3.125 9.79158 4.52411 9.79158 6.25C9.79158 7.97589 11.1907 9.375 12.9166 9.375C14.6425 9.375 16.0416 7.97589 16.0416 6.25C16.0416 4.52411 14.6425 3.125 12.9166 3.125ZM8.54159 6.25C8.54159 3.83376 10.5003 1.875 12.9166 1.875C15.3328 1.875 17.2916 3.83376 17.2916 6.25C17.2916 8.66624 15.3328 10.625 12.9166 10.625C11.9352 10.625 11.0292 10.3018 10.2993 9.75614L6.71827 13.3345L7.94186 14.5581C8.18594 14.8021 8.18594 15.1979 7.94186 15.4419C7.69778 15.686 7.30205 15.686 7.05798 15.4419L5.83404 14.218L4.21731 15.8335L5.44186 17.0581C5.68594 17.3021 5.68594 17.6979 5.44186 17.9419C5.19778 18.186 4.80205 18.186 4.55798 17.9419L2.89131 16.2753C2.77407 16.158 2.70822 15.999 2.70825 15.8332C2.70828 15.6674 2.7742 15.5084 2.89148 15.3912L5.36304 12.9216C5.37207 12.9113 5.38149 12.9012 5.39131 12.8914C5.40125 12.8815 5.41143 12.8719 5.42185 12.8628L9.41474 8.87298C8.86643 8.14212 8.54159 7.234 8.54159 6.25Z" fill="#AD8361"/>
</svg>
